PathFileType	4	(X/Y/Z)	./resultDataOpenSim/trcMotMarkerGrf/sub06/qtm-05-06.trc
DataRate	CameraRate	NumFrames	NumMarkers	Units	OrigDataRate	OrigDataStartFrame	OrigNumFrames
250.000000	250.000000	7	24	m	250.000000	456	521
Frame#	Time	L.Toe.Tip			R.Toe.Tip			L.Ankle.Lat			R.Ankle.Lat			L.Ankle.Med			R.Ankle.Med			L.Heel			R.Heel			L.Knee.Lat			R.Knee.Lat			L.Knee.Med			R.Knee.Med			L.Thigh.Upper			R.Thigh.Upper			L.ASIS			R.ASIS			V.Sacral			L.Acromium			R.Acromium			C7			L.Elbow			R.Elbow			L.Wrist.Lat			R.Wrist.Lat
		X1	Y1	Z1	X2	Y2	Z2	X3	Y3	Z3	X4	Y4	Z4	X5	Y5	Z5	X6	Y6	Z6	X7	Y7	Z7	X8	Y8	Z8	X9	Y9	Z9	X10	Y10	Z10	X11	Y11	Z11	X12	Y12	Z12	X13	Y13	Z13	X14	Y14	Z14	X15	Y15	Z15	X16	Y16	Z16	X17	Y17	Z17	X18	Y18	Z18	X19	Y19	Z19	X20	Y20	Z20	X21	Y21	Z21	X22	Y22	Z22	X23	Y23	Z23	X24	Y24	Z24

456	1.82	1.7012973	0.03370731	0.006956102	1.0297027	0.073036483	0.15634093	1.5777806	0.067122053	-0.02528724	1.0319828	0.21208934	0.18938247	1.5739764	0.079106101	0.061048582	1.0734197	0.1998689	0.11012105	1.4992649	0.039510562	0.010386666	1.012558	0.25817561	0.12424567	1.6193072	0.43925437	-0.032450994	1.3767929	0.39069753	0.22775313	1.5872047	0.43334449	0.083477969	1.3780611	0.36696941	0.093339896	1.4632296	0.80282936	-0.1064056	1.4015525	0.75349501	0.23041121	1.5213408	0.84017308	-0.050325576	1.4952272	0.81624139	0.19234307	1.316993	0.90327596	0.066835059	1.444568	1.3078018	-0.1293173	1.4464766	1.306553	0.23528565	1.3592498	1.3438351	0.052814447	1.3416784	1.0104451	-0.16956725	1.40497	0.98524723	0.31173017	1.4139162	0.78318007	-0.22415926	1.6164598	0.85761322	0.2740698
457	1.824	1.7012418	0.033696641	0.0068514517	1.0435043	0.07566783	0.1581017	1.5776833	0.067107381	-0.025575568	1.0441622	0.21495269	0.18935707	1.573902	0.079199382	0.060977958	1.0856993	0.20266628	0.11024829	1.4992114	0.039568393	0.010333447	1.0241037	0.2603988	0.12418149	1.6214179	0.43900304	-0.032866784	1.3891662	0.3918524	0.22874238	1.5891113	0.43294463	0.083069351	1.390379	0.36863903	0.094219356	1.4686422	0.80405324	-0.10676108	1.4078852	0.75511586	0.22975412	1.5270148	0.84139577	-0.05072897	1.5009518	0.81799934	0.19211815	1.3229633	0.90497948	0.066499534	1.4509837	1.3094407	-0.12941161	1.4519382	1.3081954	0.23530846	1.3653769	1.34552	0.052579222	1.350086	1.011126	-0.17017602	1.4095224	0.98699231	0.31078032	1.4251707	0.78454267	-0.22394432	1.6188319	0.85556574	0.27564153
458	1.828	1.7011852	0.033689885	0.0067608529	1.0579738	0.078170808	0.15950412	1.5776123	0.06712101	-0.0258289	1.0565534	0.21764042	0.18927878	1.5735598	0.079279609	0.0609216	1.0981798	0.20542334	0.11033403	1.4991534	0.039647963	0.010210011	1.0357912	0.26235019	0.1239319	1.6234433	0.43878777	-0.033225006	1.4014823	0.3931504	0.22970992	1.5908143	0.43259725	0.082700788	1.4026597	0.37049053	0.095211321	1.4740979	0.80527874	-0.10712916	1.4145089	0.75674309	0.22907777	1.5326561	0.84263102	-0.051120636	1.5066635	0.81980555	0.19195155	1.3289703	0.9067101	0.066143274	1.4573359	1.3111312	-0.1294827	1.4573549	1.3098641	0.2353511	1.3714584	1.3472035	0.052349247	1.3585165	1.0118523	-0.17080428	1.4143783	0.9887582	0.30981057	1.4365024	0.78600506	-0.22369418	1.6211083	0.85362272	0.2772367
459	1.832	1.7011332	0.033687952	0.0066845036	1.0730061	0.080573764	0.16042281	1.5775676	0.067130773	-0.026003097	1.0691527	0.2201309	0.18916584	1.5730618	0.079360333	0.060875164	1.1108745	0.20808344	0.11037122	1.4990814	0.039721419	0.010029401	1.047593	0.26402324	0.12354887	1.6253861	0.43859639	-0.033524873	1.4137373	0.39458445	0.23065487	1.5923776	0.43232315	0.082380358	1.4149838	0.37242716	0.096365495	1.4795442	0.80649785	-0.10749409	1.4213567	0.75839517	0.2283742	1.538267	0.8438861	-0.051503894	1.5124352	0.82165419	0.19181179	1.3349094	0.9084827	0.065773426	1.4636298	1.3128672	-0.1295326	1.4627399	1.311555	0.23540913	1.3775008	1.3488911	0.052132119	1.3669694	1.0126147	-0.17144278	1.4194055	0.99054388	0.30886328	1.4479095	0.78756485	-0.22340254	1.6232954	0.8517897	0.2788559
460	1.836	1.7010868	0.03368909	0.0066225186	1.0884582	0.082820111	0.1610402	1.5775307	0.067119052	-0.026109647	1.0819831	0.22240814	0.18903782	1.5727365	0.079486443	0.060820987	1.1237742	0.21056291	0.11035181	1.4990003	0.039759923	0.0098948401	1.0594089	0.26537975	0.12322022	1.6272363	0.43841619	-0.033766654	1.425915	0.39617201	0.23155897	1.5938588	0.43213545	0.08211676	1.4273606	0.37442027	0.097598662	1.4848601	0.8077072	-0.10782734	1.4283586	0.76009742	0.22766013	1.5438301	0.84516407	-0.051876073	1.5182731	0.82354641	0.19167854	1.3407294	0.91028764	0.065397171	1.4698735	1.3146483	-0.1295626	1.4681095	1.3132589	0.23548026	1.3835017	1.3505944	0.051931788	1.3754412	1.0134103	-0.17208106	1.4245045	0.99234759	0.30796664	1.4593847	0.78921493	-0.22306529	1.6253844	0.85006741	0.28050557
461	1.84	1.7010449	0.033690005	0.0065747105	1.1042018	0.08483126	0.16164754	1.5774944	0.067076788	-0.026150963	1.0950664	0.22444886	0.18891031	1.5728463	0.079698424	0.060743598	1.1368536	0.2127636	0.11027703	1.4989285	0.039761665	0.0099206289	1.0712359	0.266385	0.12302152	1.6289923	0.43824077	-0.033946855	1.4380407	0.39794531	0.23241676	1.5952893	0.43203733	0.081914504	1.4397164	0.37650549	0.098660796	1.4899848	0.8089081	-0.10811251	1.4355409	0.7618578	0.22699023	1.5493061	0.84646606	-0.052228996	1.5241406	0.82548481	0.19154205	1.3464227	0.91209204	0.065018251	1.4760727	1.3164809	-0.12957383	1.4734724	1.3149646	0.23556325	1.3894594	1.3523102	0.051747265	1.3839289	1.0142399	-0.17271837	1.4295145	0.99417664	0.30713414	1.4709117	0.79094732	-0.22268301	1.6273636	0.84845491	0.28218544
462	1.844	1.7010078	0.033689007	0.0065395387	1.120192	0.086584379	0.16239448	1.5774642	0.066997189	-0.026107057	1.1083741	0.22620881	0.18879151	1.5733278	0.07997783	0.060648842	1.1500999	0.21461324	0.11018286	1.4988748	0.03975702	0.01008484	1.0832004	0.26704871	0.12286677	1.6306725	0.43807201	-0.034058473	1.4501894	0.39991831	0.23325405	1.5966688	0.43202055	0.081771179	1.4519839	0.37871347	0.099367563	1.4949976	0.81010265	-0.10836124	1.4431214	0.76364934	0.22643124	1.5546638	0.84779247	-0.052560325	1.5299998	0.82746548	0.19139727	1.3520841	0.91385967	0.06463704	1.4822258	1.3183691	-0.12956887	1.4788278	1.3166607	0.23565423	1.3953816	1.3540188	0.051582196	1.3924345	1.0151007	-0.17335818	1.4342365	0.99604367	0.30636553	1.4824758	0.7927565	-0.22225716	1.6292325	0.84695076	0.28388811
